<svg width="35" height="42" viewBox="0 0 35 42" fill="none" xmlns="http://www.w3.org/2000/svg">
<path fill-rule="evenodd" clip-rule="evenodd" d="M12.3307 20.0014L12.4652 23.118C12.981 22.9534 12.9137 19.6392 12.9025 19.6392L14.0014 18.2362C14.0746 18.4776 14.6815 20.4764 14.7342 20.528C14.8014 20.5828 14.5099 21.4607 14.5099 21.4607L15.2163 21.2193L17.1334 21.8778L14.0077 18.2282L14.4497 17.6639L14.4833 16.5226C13.7097 16.4129 13.2949 12.9561 13.2949 12.9561L13.2837 14.0316C11.8374 13.2524 12.4877 11.6722 12.4877 11.6722C12.4877 11.6722 13.0819 11.2661 13.7321 11.6941C13.7658 10.6845 16.4229 9.09328 16.4229 9.09328C15.5828 9.13182 14.7927 9.88865 14.1582 10.4964C13.7088 10.9268 13.3375 11.2824 13.0819 11.2551C13.0819 11.2551 13.4294 7.44719 13.7546 7.04115C13.5752 8.97257 13.5191 10.5418 13.5415 10.6516L13.8106 10.454C13.8106 10.454 13.9564 7.48011 14.0573 7.07407C14.1582 6.66804 15.1448 5 18.0262 5C19.7976 5 20.7057 5.69136 21.1654 6.21811C21.3896 6.49246 21.5242 6.82167 21.569 7.16187L22.0063 10.6296L22.0175 7.46914C22.5108 8.56653 22.309 11.299 22.309 11.299C21.8996 11.3143 21.4925 10.8324 21.0602 10.3205C20.5573 9.72509 20.0201 9.08914 19.4052 9.14815C20.0562 9.48913 20.4164 10.0152 20.7612 10.5189C21.0934 11.0041 21.4114 11.4686 21.9614 11.727C21.9614 11.727 23.3965 11.2112 23.2171 12.4513C23.0377 13.6914 22.0287 14.0974 22.0287 14.0974C21.9726 14.7339 21.569 15.7435 21.569 15.7435C19.6406 18.904 18.4634 18.3992 18.4634 18.3992L18.441 19.321L18.1719 19.7929L18.1383 20.4513L19.9994 19.0686L18.5755 21.2743C20.3694 20.0123 20.9748 17.2908 20.9748 17.2908L23.0938 20.2318L24.8204 20.4513L25.0782 26.1358L25.5603 21.0329C26.3676 21.2853 28.8005 22.9643 28.8005 22.9643L28.4865 23.6667C31.3006 29.011 29.3498 37 29.3498 37H6.25403C5.68224 36.3745 5.59255 34.8381 5.59255 34.8381C5.13288 24.9177 7.06126 23.6447 7.06126 23.6447L6.82582 23.118C8.09273 21.3402 10.5705 20.9342 10.5705 20.9342C10.8396 20.0343 12.3307 20.0014 12.3307 20.0014ZM14.0077 18.2282L13.9942 18.2125L14.0014 18.2362L14.0077 18.2282ZM22.7953 27.4526H13.9942C14.7005 26.8929 17.5595 26.871 17.5595 26.871C17.7949 25.3566 18.7815 22.5802 19.6224 22.8216L18.9385 25.4334C20.1157 22.5582 20.6539 22.7229 20.6539 22.7229C21.1584 23.3264 22.7953 23.7325 22.7953 23.7325V27.4526ZM19.9255 20.9013L20.9345 18.52C20.9345 18.52 22.6611 20.605 22.5826 21.3732C22.5042 22.1414 22.3472 22.8437 22.3472 22.8437L19.9255 20.9013ZM17.1002 25.4115C16.6518 23.6556 15.7436 22.4046 15.7436 22.4046L17.1339 22.679L17.1002 25.4115ZM17.3018 11.9903C17.2794 11.0795 14.9138 10.9807 14.9138 10.9807C16.7076 8.62134 19.4881 10.2345 19.9029 10.5967C20.1944 10.8271 20.1271 10.9807 20.0599 11.0466C20.0262 11.0795 19.9702 11.0795 19.9253 11.0795C18.7481 11.0685 18.1876 11.5185 18.3221 11.9025C18.3894 12.122 18.6809 12.2647 19.0508 12.2976C19.3984 12.3305 19.8581 12.2866 20.1272 12.0672C20.2729 11.9464 20.4411 11.6831 20.2168 11.5843C19.4824 11.2637 19.9428 11.2441 20.1282 11.2362C20.1522 11.2352 20.1716 11.2344 20.1832 11.2331L20.2253 11.2299C20.3463 11.2204 20.422 11.2145 20.4523 11.2441L20.8671 11.6501C20.9904 11.7818 21.0689 11.9574 21.0577 12.133L20.9568 14.5692C20.9456 14.8545 20.8447 15.1289 20.6653 15.3593L19.2751 17.1042C19.0845 17.3346 18.793 17.4773 18.4903 17.4773H16.5955C15.7883 16.8957 16.5955 16.336 16.5955 16.336H17.4588L17.3018 16.0178H16.5955L16.674 15.6227C18.8719 15.7087 18.8719 15.2625 18.8719 15.2625C18.8719 15.2625 18.1842 15.325 16.674 15.2968C16.6944 14.6104 18.1875 14.0973 18.1875 14.0973L17.3018 14.3388L16.4385 14.0425L17.3018 13.1426C17.3018 13.1426 17.3243 12.9012 17.3018 11.9903ZM20.1946 29.3402L22.6612 28.6379C22.6612 28.6379 25.4641 28.8025 25.5538 29.1756C25.6435 29.5597 25.0044 30.3169 25.0044 30.3169C25.0044 30.3169 21.3158 30.1523 20.1946 29.3402ZM26.3273 35.3211L25.8677 32.9069L27.4485 31.173C27.4485 31.173 28.3342 29.3952 28.3678 25.7848C29.4553 27.1126 29.0181 33.3239 29.0181 33.3239L27.213 33.3678L28.5584 34.114H27.3588L28.5584 36.3713L26.3273 35.3211ZM10.7207 31.579H13.5012L13.0191 30.9645L24.3859 36.337L16.6068 31.8863L22.7395 34.3005L19.5666 32.1716L24.7722 33.9687L23.9986 31.1923L13.4115 28.4953C13.4115 28.4953 11.4607 28.3088 10.7095 29.7134L10.7207 31.579ZM11.2704 33.0934L10.5192 35.2223L12.3018 32.3691H14.2414L17.1116 34.3773L9.20746 36.5063L11.2704 33.0934ZM6.59517 30.262L9.80168 30.1632L8.4563 31.4472L10.0595 30.8107C10.0595 30.8107 10.3398 31.1289 10.1829 31.4472C10.0259 31.7764 6.69608 33.2469 6.69608 33.2469L6.35973 31.7106L6.86425 31.3045L6.56154 30.9314L6.59517 30.262ZM7.26793 26.9807C7.23429 27.5842 6.87552 27.8696 6.87552 27.8696L8.94966 28.6377H6.6625L6.60645 29.7022L10.0932 29.6034C10.2502 28.3414 9.90264 26.41 9.84658 26.1467C9.79053 25.8833 8.17606 24.8737 7.88456 24.731C7.60427 24.5884 7.30156 26.3991 7.26793 26.9807Z" fill="#0C5480"/>
</svg>
